<svg width="115" height="27" viewBox="0 0 115 27" fill="none" xmlns="http://www.w3.org/2000/svg">
<path fill-rule="evenodd" clip-rule="evenodd" d="M50.6501 18.8899C51.2709 17.1227 51.5757 15.2586 51.5504 13.3842C51.5748 11.5159 51.27 9.65809 50.6501 7.89713C50.097 6.32915 49.2349 4.89011 48.1155 3.66658C47.0165 2.48909 45.679 1.56356 44.1937 0.952782C42.5916 0.302742 40.8774 -0.0207249 39.1504 0.00109451C37.4258 -0.0215004 35.7144 0.305951 34.118 0.963934C32.6386 1.57978 31.3047 2.50325 30.2036 3.67401C29.0835 4.89417 28.2212 6.33095 27.669 7.89713C27.0492 9.65809 26.7444 11.5159 26.7688 13.3842C26.7434 15.2586 27.0482 17.1227 27.669 18.8899C28.2212 20.456 29.0835 21.8928 30.2036 23.113C31.3031 24.2838 32.6375 25.2051 34.118 25.8156C37.3586 27.0844 40.9532 27.0844 44.1937 25.8156C45.677 25.2062 47.014 24.2848 48.1155 23.113C49.2356 21.8928 50.0979 20.456 50.6501 18.8899ZM48.8536 8.45855C49.3708 10.0474 49.6202 11.7124 49.5915 13.3843C49.6219 15.0587 49.3725 16.7264 48.8536 18.3174C48.3997 19.6822 47.6726 20.9386 46.7174 22.0089C45.7978 23.023 44.6627 23.8147 43.397 24.325C40.6656 25.3811 37.6428 25.3811 34.9114 24.325C33.6474 23.8116 32.513 23.0203 31.591 22.0089C30.6313 20.9394 29.8993 19.6831 29.4401 18.3174C28.9118 16.7282 28.6548 15.0601 28.6801 13.3843C28.6598 11.717 28.918 10.0581 29.4438 8.47714C29.8998 7.10227 30.6319 5.83679 31.5947 4.75961C32.5183 3.74836 33.6521 2.955 34.9151 2.43615C37.6438 1.36538 40.672 1.36538 43.4007 2.43615C44.6654 2.95183 45.7998 3.74564 46.7211 4.75961C47.6758 5.83243 48.4017 7.09143 48.8536 8.45855Z" fill="#0364FF"/>
<path fill-rule="evenodd" clip-rule="evenodd" d="M70.7792 26.7665H72.3707L63.4788 15.1826C63.263 14.8867 62.9963 14.6347 62.692 14.4391C63.7458 14.3225 64.778 14.0496 65.7566 13.6286C66.6144 13.2563 67.4005 12.7274 68.0775 12.0673C68.7113 11.4371 69.2117 10.6775 69.5469 9.83671C69.8971 8.94846 70.0717 7.99662 70.0606 7.03737C70.0534 4.73 69.3085 2.98026 67.826 1.78815C66.3434 0.596051 64.1159 0 61.1436 0H54.5259V26.7665H56.4084V14.6621H59.7999C60.0173 14.6601 60.2346 14.6737 60.4502 14.703C60.6074 14.7199 60.7612 14.7612 60.9065 14.8257C61.0391 14.8803 61.1609 14.9597 61.2657 15.0599C61.3767 15.1744 61.4777 15.2988 61.5675 15.4317L69.8666 26.2907C69.9635 26.4479 70.0985 26.5761 70.2582 26.6625C70.4221 26.7372 70.6002 26.7728 70.7792 26.7665ZM63.953 12.7959C62.9527 13.0948 61.9152 13.2388 60.8741 13.2234H56.4084V1.53165H61.1471C63.4441 1.53413 65.1913 1.99511 66.3889 2.91459C67.5864 3.83407 68.1852 5.24551 68.1852 7.14891C68.1981 8.01472 68.0302 8.87321 67.693 9.66571C67.3639 10.4095 66.8718 11.0637 66.2559 11.5765C65.5739 12.1367 64.7911 12.5512 63.953 12.7959Z" fill="#0364FF"/>
<path d="M85.2588 25.0621C86.4202 25.0836 87.5732 24.8583 88.6429 24.4009C89.6055 23.979 90.4663 23.3517 91.1663 22.5622C91.8717 21.7532 92.4096 20.8097 92.748 19.7874C93.1162 18.678 93.2977 17.5141 93.2851 16.3441V0H95.1721V16.3441C95.1841 17.7361 94.9525 19.1194 94.4879 20.4301C94.0551 21.6536 93.3848 22.7775 92.5163 23.736C91.6434 24.694 90.5789 25.4537 89.3933 25.9648C86.7388 27.0347 83.7788 27.0347 81.1242 25.9648C79.938 25.4547 78.8733 24.6949 78.0012 23.736C77.1314 22.7785 76.461 21.6543 76.0296 20.4301C75.565 19.1194 75.3334 17.7361 75.3454 16.3441V0H77.2398V16.3218C77.2291 17.4935 77.4132 18.6587 77.7842 19.7689C78.1229 20.7895 78.6579 21.7325 79.3586 22.5437C80.0525 23.3397 80.9098 23.9735 81.8709 24.4009C82.9408 24.8623 84.0958 25.0877 85.2588 25.0621V25.0621Z" fill="#0364FF"/>
<path d="M113.84 3.47659C113.759 3.66854 113.573 3.79292 113.367 3.79253C113.131 3.75262 112.916 3.63197 112.756 3.45057C112.438 3.17722 112.1 2.92871 111.746 2.70717C111.244 2.39035 110.709 2.13341 110.15 1.94146C108.576 1.44855 106.891 1.46154 105.325 1.97863C104.66 2.2224 104.052 2.60192 103.538 3.09374C103.063 3.55166 102.689 4.1065 102.44 4.72179C102.194 5.33792 102.069 5.99719 102.074 6.66207C102.043 7.43461 102.235 8.19952 102.626 8.86254C103.008 9.4559 103.506 9.96224 104.091 10.3493C104.737 10.7742 105.432 11.1186 106.159 11.3752C106.928 11.6503 107.722 11.9254 108.535 12.1967C109.348 12.468 110.142 12.7691 110.911 13.0925C111.653 13.4032 112.349 13.8173 112.979 14.3228C113.587 14.8199 114.086 15.4402 114.444 16.1442C114.838 16.9832 115.027 17.9062 114.996 18.8353C115.006 19.8929 114.821 20.9429 114.451 21.9316C114.093 22.8783 113.543 23.7381 112.837 24.4554C112.098 25.1925 111.218 25.7681 110.252 26.1467C109.135 26.5763 107.947 26.7857 106.752 26.7637C105.238 26.8046 103.735 26.4918 102.359 25.8493C101.133 25.2372 100.038 24.3845 99.1377 23.3403L99.6466 22.53C99.7629 22.3602 99.9518 22.2567 100.155 22.2512C100.316 22.276 100.464 22.3545 100.576 22.4742L101.195 23.0169C101.437 23.2362 101.73 23.4704 102.07 23.7232C102.441 23.9958 102.837 24.2311 103.252 24.4257C104.36 24.9449 105.569 25.2065 106.789 25.1914C107.721 25.2077 108.649 25.0476 109.524 24.7193C110.278 24.4296 110.967 23.9869 111.548 23.4184C112.101 22.8736 112.531 22.2144 112.811 21.4855C113.107 20.7236 113.256 19.9109 113.25 19.0918C113.281 18.2917 113.088 17.499 112.694 16.8058C112.318 16.2084 111.818 15.7011 111.229 15.319C110.584 14.9004 109.89 14.5622 109.165 14.3117C108.392 14.0403 107.602 13.7764 106.785 13.5162C105.969 13.2561 105.182 12.9698 104.409 12.6465C103.664 12.3428 102.967 11.9295 102.341 11.4198C101.728 10.9134 101.229 10.2798 100.877 9.56134C100.477 8.68438 100.287 7.7243 100.32 6.75871C100.32 5.88938 100.487 5.02833 100.811 4.22371C101.139 3.4133 101.629 2.68057 102.249 2.07156C102.926 1.42392 103.722 0.918619 104.592 0.584752C105.606 0.186019 106.686 -0.0120646 107.774 0.00118038C109.003 -0.0182042 110.224 0.201328 111.372 0.647941C112.464 1.09904 113.452 1.77343 114.275 2.62911L113.84 3.47659Z" fill="#0364FF"/>
<rect width="14.8707" height="7.93103" fill="#0364FF"/>
<rect x="6.9397" width="7.93103" height="26.7672" fill="#0364FF"/>
<path d="M20.819 7.93103C23.0091 7.93103 24.7846 6.15561 24.7846 3.96552C24.7846 1.77542 23.0091 0 20.819 0C18.6289 0 16.8535 1.77542 16.8535 3.96552C16.8535 6.15561 18.6289 7.93103 20.819 7.93103Z" fill="#0364FF"/>
</svg>
